# xmcd CD database file
#
# Track frame offsets:
#	150
#	15587
#	28750
#	42302
#	56705
#	74680
#	87322
#	98000
#	112350
#	126092
#	141850
#	155742
#	168085
#	181152
#
# Disc length: 2579 seconds
#
# Revision: 0
# Processed by: cddbd v1.5PL3 Copyright (c) Steve Scherf et al.
# Submitted via: CDex 1.51
#
DISCID=c40a110e
DTITLE=Johnny Duncan - Classic Country
DYEAR=1998
DGENRE=Country
TTITLE0=Thinkin' of a Rendezvous
TTITLE1=She Can Put Her Shoes under My Bed (Anytime)
TTITLE2=Hello Mexico (And Adios Baby to You)
TTITLE3=Stranger
TTITLE4=Slow Dancing
TTITLE5=Sweet Country Woman
TTITLE6=Baby's Smile, Woman's Kiss
TTITLE7=Come a Little Bit Closer
TTITLE8=The Lady in the Blue Mercedes
TTITLE9=Play Another Slow Song
TTITLE10=It Couldn't Have Been Any Better
TTITLE11=A Song in the Night
TTITLE12=Talkin' with My Lady
TTITLE13=Acapulco
EXTD=YEAR: 1998
EXTT0=
EXTT1=
EXTT2=
EXTT3=
EXTT4=
EXTT5=
EXTT6=
EXTT7=
EXTT8=
EXTT9=
EXTT10=
EXTT11=
EXTT12=
EXTT13=
PLAYORDER=
